<svg width="100" height="20" viewBox="0 0 152 25" fill="none" xmlns="http://www.w3.org/2000/svg">
<path d="M12 0.372803L14.6942 8.6646H23.4127L16.3593 13.7892L19.0534 22.081L12 16.9564L4.94658 22.081L7.64074 13.7892L0.587322 8.6646H9.30583L12 0.372803Z" fill="#30FF14"/>
<path d="M76 0.372803L78.6942 8.6646H87.4127L80.3593 13.7892L83.0534 22.081L76 16.9564L68.9466 22.081L71.6407 13.7892L64.5873 8.6646H73.3058L76 0.372803Z" fill="#30FF14"/>
<path d="M44 0.372803L46.6942 8.6646H55.4127L48.3593 13.7892L51.0534 22.081L44 16.9564L36.9466 22.081L39.6407 13.7892L32.5873 8.6646H41.3058L44 0.372803Z" fill="#30FF14"/>
<path d="M108 0.372803L110.694 8.6646H119.413L112.359 13.7892L115.053 22.081L108 16.9564L100.947 22.081L103.641 13.7892L96.5873 8.6646H105.306L108 0.372803Z" fill="#30FF14"/>
<path d="M140 0.372803L142.694 8.6646H151.413L144.359 13.7892L147.053 22.081L140 16.9564L132.947 22.081L135.641 13.7892L128.587 8.6646H137.306L140 0.372803Z" fill="#30FF14"/>
</svg>
