<svg width="1000" height="450" viewBox="0 0 1440 784" fill="none" xmlns="http://www.w3.org/2000/svg">
<path d="M0.5 0H1440.5V784H0.5V0Z" fill="black"/>
<line x1="240.499" y1="1.81003e-08" x2="240.499" y2="761" stroke="white" stroke-opacity="0.2"/>
<line x1="480.501" y1="1.81003e-08" x2="480.501" y2="761" stroke="white" stroke-opacity="0.2"/>
<line x1="720.5" y1="1.8424e-08" x2="720.5" y2="761" stroke="white" stroke-opacity="0.2"/>
<line x1="960.499" y1="1.81003e-08" x2="960.499" y2="761" stroke="white" stroke-opacity="0.2"/>
<line x1="1200.5" y1="1.81003e-08" x2="1200.5" y2="761" stroke="white" stroke-opacity="0.2"/>
<line x1="0.500061" y1="2.18556e-08" x2="0.500028" y2="761" stroke="white" stroke-opacity="0.2"/>
<line x1="4.35159e-08" y1="541.925" x2="1435.51" y2="541.925" stroke="white" stroke-opacity="0.2"/>
<line x1="4.36367e-08" y1="433.44" x2="1435.51" y2="433.44" stroke="white" stroke-opacity="0.2"/>
<line x1="4.36367e-08" y1="324.955" x2="1435.51" y2="324.955" stroke="white" stroke-opacity="0.2"/>
<line x1="4.36367e-08" y1="216.47" x2="1435.51" y2="216.47" stroke="white" stroke-opacity="0.2"/>
<line x1="4.35159e-08" y1="107.985" x2="1435.51" y2="107.985" stroke="white" stroke-opacity="0.2"/>
<line x1="4.35159e-08" y1="-0.499817" x2="1435.51" y2="-0.499785" stroke="white" stroke-opacity="0.2"/>
<line x1="2.18556e-08" y1="650.41" x2="1435.51" y2="650.41" stroke="white" stroke-opacity="0.2"/>
</svg>
