<svg width="48" height="48" viewBox="0 0 48 48" fill="none" xmlns="http://www.w3.org/2000/svg">
<circle cx="24" cy="24" r="24" fill="#30FF14"/>
<path d="M23.8934 18.0267L24.6801 19.8667C24.7334 20.0267 24.8801 20.12 25.0268 20.1334L27.0268 20.32C27.4534 20.36 27.6134 20.88 27.3068 21.16L25.8001 22.48C25.6801 22.5867 25.6268 22.7467 25.6668 22.8934L26.1068 24.8534C26.2001 25.2667 25.7601 25.5867 25.3868 25.3734L23.6668 24.3467C23.5334 24.2667 23.3601 24.2667 23.2268 24.3467L21.5068 25.3734C21.1468 25.5867 20.6934 25.2667 20.7868 24.8534L21.2268 22.8934C21.2668 22.7467 21.2134 22.5867 21.0934 22.48L19.5868 21.16C19.2668 20.88 19.4401 20.36 19.8668 20.32L21.8668 20.1334C22.0268 20.12 22.1601 20.0267 22.2268 19.88L23.0134 18.04C23.1734 17.64 23.7201 17.64 23.8934 18.0267Z" stroke="black" stroke-width="1.33333" stroke-miterlimit="10" stroke-linecap="round" stroke-linejoin="round"/>
<path d="M32.5165 21.9262C32.551 16.9188 28.5196 12.8316 23.5123 12.7971C18.5049 12.7626 14.4177 16.794 14.3832 21.8014C14.3487 26.8088 18.3801 30.896 23.3875 30.9304C28.3948 30.9649 32.4821 26.9336 32.5165 21.9262Z" stroke="black" stroke-width="1.33333" stroke-miterlimit="10" stroke-linecap="round" stroke-linejoin="round"/>
<path d="M22.2134 30.84L19.96 36.5067L17.1067 33.24L12.8 33.64L15.6534 26.4933" stroke="black" stroke-width="1.33333" stroke-miterlimit="10" stroke-linecap="round" stroke-linejoin="round"/>
<path d="M24.6667 30.84L26.9334 36.5067L29.7734 33.24L34.0934 33.64L31.2267 26.4933" stroke="black" stroke-width="1.33333" stroke-miterlimit="10" stroke-linecap="round" stroke-linejoin="round"/>
</svg>
